<svg width="20" height="18" viewBox="0 0 20 18" fill="none" xmlns="http://www.w3.org/2000/svg">
<path d="M19.8985 5.89L18.8485 1.52C18.6285 0.62 17.8485 0 16.9385 0H3.04854C2.14854 0 1.35854 0.63 1.14854 1.52L0.0985418 5.89C-0.141458 6.91 0.0785419 7.95 0.718542 8.77C0.798542 8.88 0.908542 8.96 0.998542 9.06V16C0.998542 17.1 1.89854 18 2.99854 18H16.9985C18.0985 18 18.9985 17.1 18.9985 16V9.06C19.0885 8.97 19.1985 8.88 19.2785 8.78C19.9185 7.96 20.1485 6.91 19.8985 5.89ZM16.9085 1.99L17.9585 6.36C18.0585 6.78 17.9685 7.2 17.7085 7.53C17.5685 7.71 17.2685 8 16.7685 8C16.1585 8 15.6285 7.51 15.5585 6.86L14.9785 2L16.9085 1.99ZM10.9985 2H12.9585L13.4985 6.52C13.5485 6.91 13.4285 7.3 13.1685 7.59C12.9485 7.85 12.6285 8 12.2185 8C11.5485 8 10.9985 7.41 10.9985 6.69V2ZM6.48854 6.52L7.03854 2H8.99854V6.69C8.99854 7.41 8.44854 8 7.70854 8C7.36854 8 7.05854 7.85 6.81854 7.59C6.56854 7.3 6.44854 6.91 6.48854 6.52ZM2.03854 6.36L3.04854 2H5.01854L4.43854 6.86C4.35854 7.51 3.83854 8 3.22854 8C2.73854 8 2.42854 7.71 2.29854 7.53C2.02854 7.21 1.93854 6.78 2.03854 6.36ZM2.99854 16V9.97C3.07854 9.98 3.14854 10 3.22854 10C4.09854 10 4.88854 9.64 5.46854 9.05C6.06854 9.65 6.86854 10 7.77854 10C8.64854 10 9.42854 9.64 10.0085 9.07C10.5985 9.64 11.3985 10 12.2985 10C13.1385 10 13.9385 9.65 14.5385 9.05C15.1185 9.64 15.9085 10 16.7785 10C16.8585 10 16.9285 9.98 17.0085 9.97V16H2.99854Z" fill="#5C6F82"/>
</svg>
