<svg width="60" height="60" viewBox="0 0 60 60" fill="none" xmlns="http://www.w3.org/2000/svg">
<mask id="mask0_4102_12401" style="mask-type:luminance" maskUnits="userSpaceOnUse" x="5" y="2" width="53" height="56">
<path fill-rule="evenodd" clip-rule="evenodd" d="M46 2C47.1046 2 48 2.89543 48 4V5C48 6.10457 47.1046 7 46 7H45V8.31445C45 15.4145 40.9567 21.8989 34.5654 25.041C33.3776 25.6247 32.6085 26.8079 32.6084 28.126V31.374C32.6085 32.6921 33.3794 33.8753 34.5654 34.459C40.9567 37.6011 45 44.0872 45 51.1855V52.5H46C47.1046 52.5 48 53.3954 48 54.5V55.5C48 56.6046 47.1046 57.5 46 57.5H14C12.8954 57.5 12 56.6046 12 55.5V54.5C12 53.3954 12.8954 52.5 14 52.5H15V51.1855C15 44.0855 19.0433 37.6011 25.4346 34.459C26.6206 33.8753 27.3915 32.6921 27.3916 31.374V28.126C27.3915 26.8079 26.6206 25.6247 25.4346 25.041C19.0433 21.8989 15 15.4128 15 8.31445V7H14C12.8954 7 12 6.10457 12 5V4C12 2.89543 12.8954 2 14 2H46ZM15 54H14C13.7437 54 13.5319 54.1928 13.5029 54.4414L13.5 54.5V55.5C13.5 55.7563 13.6928 55.9681 13.9414 55.9971L14 56H46C46.2563 56 46.4681 55.8072 46.4971 55.5586L46.5 55.5V54.5C46.5 54.2437 46.3072 54.0319 46.0586 54.0029L46 54H45H15ZM46 5.5H45H15H14L13.9414 5.49707C13.6928 5.46808 13.5 5.25634 13.5 5V4L13.5029 3.94141C13.5319 3.69285 13.7437 3.5 14 3.5H46L46.0586 3.50293C46.3072 3.53192 46.5 3.74366 46.5 4V5L46.4971 5.05859C46.4681 5.30715 46.2563 5.5 46 5.5ZM16.7393 7.23242V8.31445C16.7393 14.7544 20.399 20.6195 26.1953 23.4707C27.9761 24.3454 29.1308 26.1479 29.1309 28.126V31.374C29.1308 33.3503 27.9761 35.1546 26.1953 36.0293C20.399 38.8822 16.7393 44.7456 16.7393 51.1855V52.2676H17.1742C17.3405 51.2363 17.9706 47.5384 18.6999 45.9387C21.1012 40.6722 25.2461 38.0389 30.0778 38.0389C34.919 38.0389 39.0686 40.6824 41.4697 45.9694C42.1934 47.5627 42.8169 51.2396 42.9817 52.2676H43.2607V51.1855C43.2607 44.7456 39.601 38.8805 33.8047 36.0293C32.0239 35.1563 30.8692 33.3521 30.8691 31.374V28.126C30.8692 26.1479 32.0256 24.3454 33.8047 23.4707C39.601 20.6178 43.2607 14.7544 43.2607 8.31445V7.23242H16.7393ZM30 35C29.448 35 29 35.448 29 36C29 36.552 29.448 37 30 37C30.552 37 31 36.552 31 36C31 35.448 30.552 35 30 35ZM41.0965 10.0224C40.6133 10.0164 40.2167 10.4032 40.2107 10.8864C40.1901 12.5316 39.5916 14.0906 38.5193 15.2624C38.193 15.6189 38.2175 16.1724 38.574 16.4987C38.9305 16.8249 39.484 16.8004 39.8103 16.4439C41.1772 14.9502 41.9347 12.977 41.9605 10.9082C41.9666 10.425 41.5797 10.0284 41.0965 10.0224ZM9.98535 29.4893C9.98527 28.9379 9.53906 28.4913 8.98828 28.4912C8.43789 28.4912 7.99129 28.9378 7.99121 29.4893V30.4873C7.99121 31.0388 8.43785 31.4854 8.98828 31.4854C9.53911 31.4853 9.98535 31.0388 9.98535 30.4873V29.4893ZM7.99121 27.4932C7.99121 26.9417 7.545 26.4952 6.99414 26.4951H5.99707C5.44627 26.4952 5 26.9417 5 27.4932C5.00004 28.0441 5.44629 28.4911 5.99707 28.4912H6.99414C7.54497 28.4912 7.99117 28.0442 7.99121 27.4932ZM12.9766 27.4932C12.9766 26.9417 12.5299 26.4951 11.9795 26.4951H10.9824C10.432 26.4951 9.98535 26.9417 9.98535 27.4932C9.98539 28.0442 10.432 28.4912 10.9824 28.4912H11.9795C12.5299 28.4912 12.9765 28.0442 12.9766 27.4932ZM9.98535 24.498C9.98517 23.9467 9.53899 23.5001 8.98828 23.5C8.43796 23.5 7.99139 23.9467 7.99121 24.498V25.4961C7.99121 26.0476 8.43785 26.4951 8.98828 26.4951C9.53911 26.495 9.98535 26.0476 9.98535 25.4961V24.498ZM53.6823 8.22157C54.233 8.22165 54.6792 8.66791 54.6793 9.21864V10.2157C54.6793 10.7665 54.2331 11.2127 53.6823 11.2128C53.1318 11.2128 52.6852 10.7666 52.6852 10.2157V9.21864C52.6853 8.66786 53.1319 8.22157 53.6823 8.22157ZM51.6881 6.22743C52.2389 6.22747 52.685 6.67378 52.6852 7.2245C52.6852 7.77491 52.239 8.22153 51.6881 8.22157H50.691C50.1402 8.22146 49.694 7.77487 49.694 7.2245C49.6941 6.67382 50.1404 6.22753 50.691 6.22743H51.6881ZM56.6735 6.22743C57.2238 6.22744 57.6704 6.67376 57.6705 7.2245C57.6705 7.77493 57.2239 8.22156 56.6735 8.22157H55.6764C55.126 8.22157 54.6793 7.77493 54.6793 7.2245C54.6795 6.67375 55.1261 6.22743 55.6764 6.22743H56.6735ZM53.6823 3.23622C54.233 3.23629 54.6792 3.68253 54.6793 4.23329V5.23036C54.6793 5.78117 54.2331 6.22735 53.6823 6.22743C53.1318 6.22743 52.6852 5.78122 52.6852 5.23036V4.23329C52.6853 3.68248 53.1319 3.23622 53.6823 3.23622ZM53.5686 49.3657C53.5686 48.8143 53.1224 48.3677 52.5716 48.3676C52.0212 48.3676 51.5746 48.8142 51.5745 49.3657V50.3637C51.5745 50.9152 52.0211 51.3618 52.5716 51.3618C53.1224 51.3617 53.5686 50.9152 53.5686 50.3637V49.3657ZM51.5745 47.3696C51.5745 46.8181 51.1283 46.3716 50.5774 46.3715H49.5804C49.0296 46.3716 48.5833 46.8181 48.5833 47.3696C48.5833 47.9205 49.0296 48.3675 49.5804 48.3676H50.5774C51.1283 48.3676 51.5745 47.9206 51.5745 47.3696ZM56.5599 47.3696C56.5599 46.8181 56.1132 46.3715 55.5628 46.3715H54.5657C54.0153 46.3715 53.5686 46.8181 53.5686 47.3696C53.5687 47.9206 54.0153 48.3676 54.5657 48.3676H55.5628C56.1132 48.3676 56.5598 47.9206 56.5599 47.3696ZM53.5686 44.3745C53.5685 43.8231 53.1223 43.3765 52.5716 43.3764C52.0213 43.3764 51.5747 43.8231 51.5745 44.3745V45.3725C51.5745 45.924 52.0211 46.3715 52.5716 46.3715C53.1224 46.3714 53.5686 45.924 53.5686 45.3725V44.3745Z" fill="white"/>
</mask>
<g mask="url(#mask0_4102_12401)">
<rect x="-4.51318" y="-1.5" width="71.5" height="71.5" fill="#00C5CA"/>
</g>
</svg>
