<svg width="19" height="19" viewBox="0 0 19 19" fill="none" xmlns="http://www.w3.org/2000/svg">
<path d="M16.25 4.25C15.4175 3.9875 14.5025 3.875 13.625 3.875C12.1625 3.875 10.5875 4.175 9.5 5C8.4125 4.175 6.8375 3.875 5.375 3.875C3.9125 3.875 2.3375 4.175 1.25 5V15.9875C1.25 16.175 1.4375 16.3625 1.625 16.3625C1.7 16.3625 1.7375 16.325 1.8125 16.325C2.825 15.8375 4.2875 15.5 5.375 15.5C6.8375 15.5 8.4125 15.8 9.5 16.625C10.5125 15.9875 12.35 15.5 13.625 15.5C14.8625 15.5 16.1375 15.725 17.1875 16.2875C17.2625 16.325 17.3 16.325 17.375 16.325C17.5625 16.325 17.75 16.1375 17.75 15.95V5C17.3 4.6625 16.8125 4.4375 16.25 4.25ZM16.25 14.375C15.425 14.1125 14.525 14 13.625 14C12.35 14 10.5125 14.4875 9.5 15.125V6.5C10.5125 5.8625 12.35 5.375 13.625 5.375C14.525 5.375 15.425 5.4875 16.25 5.75V14.375Z" fill="#0073E6"/>
<path d="M13.625 8.375C14.285 8.375 14.9225 8.4425 15.5 8.57V7.43C14.9075 7.3175 14.27 7.25 13.625 7.25C12.35 7.25 11.195 7.4675 10.25 7.8725V9.1175C11.0975 8.6375 12.275 8.375 13.625 8.375Z" fill="#0073E6"/>
<path d="M10.25 9.86762V11.1126C11.0975 10.6326 12.275 10.3701 13.625 10.3701C14.285 10.3701 14.9225 10.4376 15.5 10.5651V9.42512C14.9075 9.31262 14.27 9.24512 13.625 9.24512C12.35 9.24512 11.195 9.47012 10.25 9.86762Z" fill="#0073E6"/>
<path d="M13.625 11.2476C12.35 11.2476 11.195 11.4651 10.25 11.8701V13.1151C11.0975 12.6351 12.275 12.3726 13.625 12.3726C14.285 12.3726 14.9225 12.4401 15.5 12.5676V11.4276C14.9075 11.3076 14.27 11.2476 13.625 11.2476Z" fill="#0073E6"/>
</svg>
