<svg width="60" height="60" viewBox="0 0 60 60" fill="none" xmlns="http://www.w3.org/2000/svg">
<mask id="mask0_87_2675" style="mask-type:luminance" maskUnits="userSpaceOnUse" x="0" y="0" width="60" height="60">
<path fill-rule="evenodd" clip-rule="evenodd" d="M54.4715 33.984H53.7228C53.4756 32.5 52.6612 31.1768 51.4582 30.3042C54.4679 23.8639 54.0269 16.2995 50.2903 10.268C46.5532 4.23659 40.0425 0.581275 33.0454 0.586715C32.447 0.585355 31.8491 0.614819 31.2538 0.675106C30.5078 0.56677 29.7511 0.56677 29.0051 0.675106C28.4205 0.619352 27.8217 0.586715 27.2184 0.586715C21.8102 0.591701 16.6243 2.78335 12.7983 6.68071C11.8932 5.94684 10.7724 5.54432 9.61565 5.53797C6.60725 5.60506 4.21857 8.1412 4.27414 11.2091C4.27414 11.3074 4.27725 11.4062 4.28303 11.506C2.32915 12.0232 0.972763 13.8327 0.99677 15.8906C0.95498 18.3284 2.85507 20.341 5.24553 20.3913H6.84687C6.8322 20.7131 6.82375 21.0409 6.82375 21.3817C6.83442 29.8364 11.8603 37.4449 19.5402 40.6333L22.3624 49.2671V56.0392C22.3624 58.2267 24.1015 60 26.247 60H34.0168C36.1623 60 37.9014 58.2267 37.9014 56.0392V49.2671L40.3572 41.7552C41.0597 43.2093 42.5032 44.1372 44.0925 44.1567H54.4715C57.1549 44.0556 59.279 41.8082 59.279 39.0704C59.279 36.3325 57.1549 34.0851 54.4715 33.984ZM51.4977 21.3817C51.5066 24.1835 50.8905 26.9513 49.6954 29.4747C49.2931 29.3664 48.8792 29.3088 48.4631 29.3034C45.4542 29.3705 43.0656 31.9066 43.1216 34.9745C43.1216 35.0728 43.1243 35.1716 43.13 35.2714C41.4691 35.7083 40.2141 37.099 39.9251 38.8233C38.6172 39.3587 37.2533 39.7381 35.86 39.9543C40.0741 36.4617 42.757 29.3211 42.757 21.3817C42.757 13.2788 39.9874 6.2383 35.8551 2.80873C44.8443 4.22661 51.4817 12.1075 51.4977 21.3817ZM31.1031 48.1175H36.2307L38.4211 41.4175C36.6704 41.9147 34.8624 42.1699 33.0454 42.1763C32.4426 42.1763 31.8419 42.1437 31.2596 42.0879C31.2289 42.0952 31.1977 42.0959 31.1665 42.0966C31.1453 42.0971 31.124 42.0976 31.1031 42.1001V48.1175ZM31.0742 2.64373L31.1253 2.65053C36.5611 3.54849 40.8147 11.7643 40.8147 21.3817C40.8147 28.9942 38.1055 35.998 34.0635 38.8569C34.0328 38.8736 34.0034 38.8918 33.975 38.9113C33.1263 39.5205 32.1558 39.9307 31.1333 40.1116L31.0742 40.1197C30.45 40.2203 29.8138 40.2203 29.1901 40.1197L29.1354 40.1125C28.1107 39.9316 27.1384 39.52 26.2888 38.9085C26.2613 38.8895 26.2328 38.8718 26.2035 38.856C22.1597 36.0021 19.4491 28.9965 19.4491 21.3817C19.4513 20.2902 19.5082 19.1996 19.6198 18.114C20.3614 16.9409 20.601 15.5103 20.2831 14.1532C21.8049 7.79761 25.2605 3.30009 29.1354 2.65053C29.1536 2.64917 29.1719 2.64691 29.1901 2.64373C29.8138 2.54265 30.45 2.54265 31.0742 2.64373ZM15.6294 10.2186C16.8853 10.2241 18.0869 10.744 18.9632 11.6614C19.9159 8.24365 21.8053 5.17398 24.4096 2.81281C20.5005 3.42837 16.8888 5.30861 14.1076 8.17611C14.4913 8.79983 14.7536 9.49381 14.8807 10.2186H15.6294ZM2.9391 15.8906C2.89197 14.5656 3.89181 13.4447 5.18996 13.3676C5.22419 13.3726 5.32911 13.3844 5.36201 13.3853C5.66831 13.3993 5.96307 13.2647 6.1569 13.0227C6.35073 12.7801 6.42142 12.4588 6.34673 12.1555C6.26493 11.8468 6.22136 11.5286 6.21647 11.2091C6.16001 9.23453 7.67955 7.58457 9.61565 7.51839C11.5522 7.58457 13.0717 9.23453 13.0148 11.2091C13.0148 11.7557 13.4496 12.199 13.9862 12.199H15.6245C17.252 12.2566 18.528 13.6455 18.4777 15.3054C18.5275 16.9649 17.252 18.3533 15.6245 18.4109H5.24553C3.92738 18.3615 2.89642 17.2351 2.9391 15.8906ZM8.79009 20.3913C8.77453 20.7113 8.76608 21.039 8.76608 21.3817C8.78253 30.6555 15.42 38.5364 24.4087 39.9543C20.1898 36.4608 17.5068 29.3211 17.5068 21.3817C17.5068 20.9094 17.5259 20.4339 17.5455 19.9584C16.9431 20.2426 16.2878 20.3899 15.6245 20.3913H8.79009ZM27.2184 42.1763C27.8181 42.1781 28.4179 42.1486 29.0149 42.0893C29.0394 42.0927 29.0644 42.0938 29.0895 42.095C29.1133 42.096 29.1372 42.097 29.1607 42.1001V48.1175H24.0331L21.844 41.4198C23.5943 41.9161 25.4019 42.1704 27.2184 42.1763ZM26.247 58.0196H34.0168C35.0895 58.0196 35.9591 57.133 35.9591 56.0392V54.0588H30.1321C29.5955 54.0588 29.1607 53.6154 29.1607 53.0688C29.1607 52.5217 29.5955 52.0783 30.1321 52.0783H35.9591V50.0979H24.3047V52.0783H26.247C26.7836 52.0783 27.2184 52.5217 27.2184 53.0688C27.2184 53.6154 26.7836 54.0588 26.247 54.0588H24.3047V56.0392C24.3047 57.133 25.1743 58.0196 26.247 58.0196ZM54.4715 42.1763H44.0925C42.8028 42.0843 41.7985 40.9986 41.7839 39.6805C41.7696 38.3628 42.7499 37.254 44.0374 37.133C44.0712 37.138 44.1761 37.1498 44.209 37.1507C44.5149 37.1607 44.8083 37.0265 45.0043 36.7876C45.2 36.546 45.272 36.2251 45.1986 35.9209C45.1173 35.6122 45.0732 35.294 45.0688 34.9745C44.9883 33.6839 45.6183 32.4546 46.703 31.7847C47.7878 31.1147 49.1477 31.1147 50.2325 31.7847C51.3172 32.4546 51.9472 33.6839 51.8667 34.9745C51.8667 35.5211 52.3015 35.9644 52.8381 35.9644H54.4764C56.0826 36.0701 57.3327 37.429 57.3327 39.0704C57.3327 40.7117 56.0826 42.0707 54.4764 42.1763H54.4715ZM55.3824 3.55756C55.919 3.55756 56.3538 3.11425 56.3538 2.56713V1.57715C56.3538 1.03003 55.919 0.586715 55.3824 0.586715C54.8462 0.586715 54.4114 1.03003 54.4114 1.57715V2.56713C54.4114 3.11425 54.8462 3.55756 55.3824 3.55756ZM53.4401 5.53797H52.4691C51.9325 5.53797 51.4977 5.09466 51.4977 4.54799C51.4977 4.00088 51.9325 3.55756 52.4691 3.55756H53.4401C53.9767 3.55756 54.4114 4.00088 54.4114 4.54799C54.4114 5.09466 53.9767 5.53797 53.4401 5.53797ZM26.4609 5.90922C26.079 6.41644 25.7291 6.9477 25.413 7.4998C25.2241 7.8035 25.2116 8.18834 25.381 8.50383C25.5499 8.81977 25.874 9.01741 26.227 9.01967C26.58 9.02194 26.9063 8.82929 27.0797 8.51562C27.3518 8.04148 27.6514 7.58411 27.9769 7.14624C28.2934 6.71833 28.2187 6.11138 27.8084 5.77686C27.398 5.44188 26.801 5.5008 26.4609 5.90922ZM24.9516 10.5527C24.4501 10.36 23.8899 10.6184 23.701 11.1297C22.8274 13.4546 22.3739 15.9214 22.3624 18.4109C22.3624 18.9575 22.7972 19.4013 23.3338 19.4013C23.8699 19.4013 24.3047 18.9575 24.3047 18.4109C24.3163 16.1603 24.727 13.9301 25.5179 11.8287C25.6091 11.583 25.6002 11.3106 25.4939 11.0713C25.3881 10.8315 25.193 10.6452 24.9516 10.5527ZM58.2961 3.55756H57.3247C56.7886 3.55756 56.3538 4.00088 56.3538 4.54799C56.3538 5.09466 56.7886 5.53797 57.3247 5.53797H58.2961C58.8323 5.53797 59.2675 5.09466 59.2675 4.54799C59.2675 4.00088 58.8323 3.55756 58.2961 3.55756ZM54.4114 6.52841C54.4114 5.98129 54.8462 5.53797 55.3824 5.53797C55.919 5.53797 56.3538 5.98129 56.3538 6.52841V7.51839C56.3538 8.0655 55.919 8.50882 55.3824 8.50882C54.8462 8.50882 54.4114 8.0655 54.4114 7.51839V6.52841ZM3.91004 47.1271H4.88143C5.41758 47.1271 5.85237 47.5709 5.85237 48.1175C5.85237 48.6642 5.41758 49.108 4.88143 49.108H3.91004C3.37389 49.108 2.9391 48.6642 2.9391 48.1175C2.9391 47.5709 3.37389 47.1271 3.91004 47.1271ZM10.7084 48.1175C10.7084 47.5709 10.2736 47.1271 9.73702 47.1271H8.76608C8.22948 47.1271 7.79469 47.5709 7.79469 48.1175C7.79469 48.6642 8.22948 49.108 8.76608 49.108H9.73702C10.2736 49.108 10.7084 48.6642 10.7084 48.1175ZM6.82375 52.0784C6.28716 52.0784 5.85237 51.635 5.85237 51.0884V50.0979C5.85237 49.5513 6.28716 49.108 6.82375 49.108C7.3599 49.108 7.79469 49.5513 7.79469 50.0979V51.0884C7.79469 51.635 7.3599 52.0784 6.82375 52.0784ZM6.82375 44.1567C6.28716 44.1567 5.85237 44.6 5.85237 45.1467V46.1371C5.85237 46.6838 6.28716 47.1271 6.82375 47.1271C7.3599 47.1271 7.79469 46.6838 7.79469 46.1371V45.1467C7.79469 44.6 7.3599 44.1567 6.82375 44.1567ZM50.5268 54.0588H51.4977C52.0343 54.0588 52.4691 54.5021 52.4691 55.0492C52.4691 55.5959 52.0343 56.0392 51.4977 56.0392H50.5268C49.9902 56.0392 49.5554 55.5959 49.5554 55.0492C49.5554 54.5021 49.9902 54.0588 50.5268 54.0588ZM55.3824 56.0392H56.3538C56.8899 56.0392 57.3247 55.5959 57.3247 55.0492C57.3247 54.5021 56.8899 54.0588 56.3538 54.0588H55.3824C54.8462 54.0588 54.4114 54.5021 54.4114 55.0492C54.4114 55.5959 54.8462 56.0392 55.3824 56.0392ZM53.4401 59.01C52.9039 59.01 52.4691 58.5667 52.4691 58.0196V57.0296C52.4691 56.4825 52.9039 56.0392 53.4401 56.0392C53.9767 56.0392 54.4114 56.4825 54.4114 57.0296V58.0196C54.4114 58.5667 53.9767 59.01 53.4401 59.01ZM53.4401 51.0884C52.9039 51.0884 52.4691 51.5317 52.4691 52.0784V53.0688C52.4691 53.6155 52.9039 54.0588 53.4401 54.0588C53.9767 54.0588 54.4114 53.6155 54.4114 53.0688V52.0784C54.4114 51.5317 53.9767 51.0884 53.4401 51.0884Z" fill="white"/>
</mask>
<g mask="url(#mask0_87_2675)">
<rect x="-15" y="-21.1765" width="91.1538" height="89.4118" fill="#00C5CA"/>
</g>
</svg>
