<svg width="23" height="23" viewBox="0 0 23 23" fill="none" xmlns="http://www.w3.org/2000/svg">
<path d="M15.7082 7.44825L9.66732 13.4891L6.37648 10.2074L5.08398 11.4999L9.66732 16.0833L17.0007 8.74992L15.7082 7.44825ZM11.5007 2.33325C6.44065 2.33325 2.33398 6.43992 2.33398 11.4999C2.33398 16.5599 6.44065 20.6666 11.5007 20.6666C16.5607 20.6666 20.6673 16.5599 20.6673 11.4999C20.6673 6.43992 16.5607 2.33325 11.5007 2.33325ZM11.5007 18.8333C7.44898 18.8333 4.16732 15.5516 4.16732 11.4999C4.16732 7.44825 7.44898 4.16659 11.5007 4.16659C15.5523 4.16659 18.834 7.44825 18.834 11.4999C18.834 15.5516 15.5523 18.8333 11.5007 18.8333Z" fill="#6CC66A"/>
</svg>
